<?xml version="1.0" encoding="UTF-8"?><svg id="Layer_2" xmlns="http://www.w3.org/2000/svg" viewBox="0 0 191.24 143.68"><defs><style>.cls-1{fill:#66683a;}</style></defs><g id="Layer_1-2"><path class="cls-1" d="m164.24,70.47c.74,4.52,5.25,4.9,8.04,7.11,1.96,1.55,5.44,1.67,6.69,3.5,1.43,2.1,2.91,4.08,4.88,5.43,4.61,3.18,6.42,7.74,7.38,13.25-3.05,4.27-7.57,3.36-11.67,2.36-3.01-.74-5.73-1.17-9.03.18,2.14,4.23,8.41,6.04,7,12.03-4.69,3.5-4.63,3.39-9.22.89-1.44-.78-3.3-1.12-4.96-1.08-3.34.08-6.81.11-9.99,1-3.99,1.12-7.21-.05-9.85-2.52-3.06-2.86-6.33-4.54-10.91-4.08-.23-3.05-.57-5.63-2.75-8-1.69-1.84-1.8-5.11-2.65-7.86-4.17-.67-4.64-.47-4.87,2.94-.17,2.57-.31,5.21.05,7.74.23,1.63,1.12,3.35,2.19,4.64,2.74,3.33,5.63,6.59,7.1,10.69,1.39,3.89,1.48,7.93.04,12.29-3.13-3.11-5.47-5.84-6.23-10.1-.43-2.4-3.21-4.37-4.95-6.57-3.36,1.71-4.24,4.52-5.16,6.99-1.69,4.5-5.05,7.55-8.24,10.79-2.2,2.23-4.78,4.1-6.81,6.45-1.04,1.21-1.26,3.13-1.99,5.12-.4-.04-1.43.15-1.79-.25-4.25-4.82-8.27-9.84-12.6-14.57-4.35-4.74-6.97-10.39-9.2-16.14-6.05-.98-5.83-.88-8.17,3.99-2.18,4.53-4.82,8.85-7.39,13.18-.42.71-1.54,1.01-2.87,1.84-.3-3.25-.55-5.91-.78-8.37,1.98-2.52,4.78-4.03,4.65-7.6-.03-.99,1.57-2.23,2.65-3.04,6.15-4.62,7.41-10.81,6.02-17.93-.11-.58-.01-1.19-.07-1.78-.05-.58-.18-1.15-.28-1.76-1.86-.87-3.41-.94-4.5,1.17-1.85,3.59-5.09,6.26-5.67,10.8-.32,2.52-1.67,5.82-5.05,6.82-.18.05-.4.19-.48.34-2.5,5.52-6.33,5.1-11.29,3.3-2.94-1.06-6.44-1.17-9.9.07-3.96,1.42-8.3,1.53-11.89-1.42-1.11-.91-2.57-2.8-2.27-3.7.56-1.65,2.18-3.06,3.63-4.24.6-.49,1.91-.22,2.89-.12,5.55.53,9.84-2.43,14.22-5.09,2.06-1.25,4.03-2.63,6.46-4.23-1.29-2.66.02-4.88,2.74-6.84,1.19-.86,1.86-2.53,2.57-3.94,2.52-5.03,6.49-8.29,11.74-10.22,4.5-1.66,6.74-5.28,6.43-10.56-3.13,3.23-8,3.18-10.18,7.32-.35.66-1.05,1.32-1.74,1.59-7.36,2.89-12.21,9.27-18.65,13.44-2.16,1.4-3.54,3.59-3.59,6.41-.04,2.35-.27,4.69-.41,7.01-2.96,2.27-6.42,3.02-9.58,1.84-6.32-2.37-12.53-.88-18.79-.44-1.36.1-2.71.22-4.19.34-1.57-3.97-1.66-7.25,2.04-10.05,1.35-1.02,2.23-2.76,3.1-4.3,2.04-3.6,4.86-6.24,8.76-7.67.55-.2,1.45-.18,1.65-.55,3.46-6.42,10.59-7.54,15.9-11.26,6.02-4.23,12.86-6.56,19.28-9.85,6.31-3.24,12.45-6.8,18.75-10.06,2.56-1.33,5.35-2.22,8.56-3.53-.83-1.19-1.23-2.37-2.04-2.83-4.89-2.79-9.23-6.21-13.58-11.12h-16.42c5.27-4.15,9.89-4.67,14.92-4.66,5.1,0,8.22,3.81,12.51,5.37.32,1.27.65,2.57,1.12,4.42,1.44-.61,3.11-.78,3.7-1.66,1.97-2.97,1.76-6.36,1.15-9.95-1.28-.53-2.6-.93-3.78-1.58-1.44-.8-2.87-2.02-1.98-3.78.63-1.24,1.94-2.6,3.21-2.94,1.32-.36,2.94.52,4.45.69,1.25.14,2.52.03,3.95.03-1.15-4.75-2.16-8.97-3.18-13.2l-.06.05c5.92-.59,9.07,4.07,13.06,7.06.49.37.12,1.79.32,2.69.54,2.48,1.95,3.52,4.16,2.53,1.88-.84,3.84-2.07,5.08-3.66,2.52-3.22,5.44-5.53,9.39-6.77,3.74-1.17,7.34-2.8,11-4.23l-.03-.04c-.24.87-.27,2.34-.77,2.53-4.49,1.71-7.64,4.32-7.73,9.58-.01.66-.81,1.3-1.25,1.95-.88.3-1.77.59-2.66.89.14.32.28.63.41.95.87-.46,1.75-.91,2.62-1.37,4.71-1.06,6.79,3.15,10.94,5.29-6.58,2.15-6.08,7.99-7.59,12.32q-8.9,3.74-7.76,8.53c3.71-2.34,7.91-3.97,10.66-6.95,5.84-6.32,12.92-8,20.93-7.58,2.17.11,4.78-.72,6.39,1.73-1.53,2.39-3.78,2.03-5.57,1.77-5.17-.74-9.09,1.01-12.49,4.83-1.92,2.15-4.33,3.86-6.52,5.77-1.05.5-2.08,1.06-3.16,1.49-4.07,1.62-8.14-.3-12.23-.11-4.4.21-4.41-.01-7.33,2.97-3.14-2.96-3.15-3.08-7.55-3.18-3.61-.08-7.07-.16-9.98-2.83-.69-.63-2.15-.41-3.49-.62.85,2.6,1.55,4.77,2.13,6.53,4.96,3.18,10.14,3.96,15.52,3.59,2.14-.15,5.08.18,6.24-1.05,3-3.17,6.48-2.51,9.93-2.37,4.12.16,7.87-.42,10.84-3.57,1.69-.53,3.69-.65,5.02-1.66,4.22-3.15,9.29-2.94,14.01-4.12,2.76-.69,4.21,1.34,6.45,2.97-1.09.71-1.94,1.71-2.86,1.78-3.15.23-6.33.19-9.49.15-2.45-.03-4.45.35-6.32,2.4-1.77,1.94-4.37,3.11-6.6,4.62-.76.46-1.52.93-2.28,1.39.36.41.96,1.22,1.05,1.17.76-.45,1.42-1.05,2.12-1.61.76,1.26,1.53,2.52,2.62,4.33,5.45.45,10.26,4.36,15.9,6.15,1.85.59.5,3.67,3.27,3.39,1.47-.15,3.12.41,4.52,1.03,2.04.92,3.79,2.32,5.13,4.19,1.26,1.76,2.51,3.63,5.15,3.21h0Zm-84.35,36.67c-.4-.21-.8-.42-1.19-.63.22.36.43.73.65,1.09,7.42,5.51,16.02,4.84,24.52,4.71,1.68-.02,2.88-.67,3.9-2.58-1.34-.37-2.24-.8-3.15-.82-4.56-.13-9.15-.47-13.69-.13-3.88.29-7.48-.21-11.03-1.63Zm45-45.36c-.42.18-.83.36-1.25.54,0,1.04-.34,2.23.05,3.09,2.39,5.28,6.45,9.34,12.86,13.45.96.61,2.14,1.65,2.28,2.62.38,2.68,2.37,3.97,3.99,5.62.24.25.28.7.41,1.05-.35.88-.7,1.75-1.2,2.99,1.56.44,2.8.79,4.34,1.22v5.77c3.68,1.43,5.36,6.06,10.41,5.52,0-2.8.29-5.4-.09-7.89-.31-2.06-1.02-4.31-2.27-5.92-2.51-3.24-5.45-6.16-8.32-9.12-2.17-2.23-4.3-4.58-6.8-6.4-2.97-2.18-6.08-3.97-8.27-7.19-1.48-2.17-4.06-3.59-6.15-5.35Zm-29.33,41.08c1.69,0,3.1.18,4.45-.03,3.5-.55,7.03-1.08,10.43-2.02,1.01-.28,2.28-1.93,2.26-2.93-.02-.85-1.66-2.26-2.69-2.37-2.5-.27-5.15-.27-7.6.23-5.16,1.06-10.11.91-15.16-.67-2.15-.67-4.62-.49-6.92-.34-.64.04-1.61,1.29-1.68,2.05-.06.71.7,1.89,1.4,2.22,5,2.35,10.03,4.73,15.52,3.86Zm17.08-30.27c-1.89-1.11-3.69-2.26-5.59-3.22-.66-.33-1.55-.27-2.34-.27-5.37-.05-10.74-.14-16.1-.05-1.32.02-3.35.21-3.81,1.02-1.6,2.83-4.38,2.86-7.08,3.8,1.36.93,2.7,1.54,4.1,1.74,1.94.28,3.93.32,5.9.35,6.73.11,13.47.23,20.2.24,2.26,0,4.38-.51,4.71-3.61Zm-.12,9.89c-.75-.16-1.6-.64-2.17-.41-5.36,2.15-10.93,1.26-16.43,1.23-2.31-.01-4.6.09-6.77-1.53-1.76-1.32-4.09-1.25-6.13,1.09.8.59,1.95.99,2.18,1.7,1.25,3.82,4.2,4.29,7.54,4.18,1.58-.05,3.18-.27,4.74-.08,2.22.28,4.41.86,6.73,1.35,1.71-.96,3.57-2.07,5.49-3.08,1.93-1.01,4.94-.76,4.83-4.45Zm-4.82,38c-2.41.2-4.72.25-6.98.61-3.34.53-6.57.99-9.77-.73-1.97-1.06-4.1-1.25-6.02.3,1.9,6.17,5.6,9.02,10.93,8.57,6.52-.55,11.16-3.76,11.85-8.75Zm-.85-88.22c1.04-2.47.86-4.18-1.14-4.43-5.01-.62-10.09-1.49-15.12.32-.38,2.71.7,4.04,3.13,4.08,4.32.08,8.64.02,13.13.02Zm53.64,71.38q4.17,2.8,6.47-1.03c-2.53.4-4.5.72-6.47,1.03Zm-88.78-41.88c-.32-.11-.74-.4-.95-.3-.26.13-.34.6-.5.92.32.11.73.4.93.29.26-.14.35-.59.52-.92Zm15.63-43.38l-.3.06.18.29.12-.35Zm-24.59,16.25c-5.26.6-10.9-.8-16.17,3.21,1.65.27,2.77.43,3.89.65,5.42,1.05,11.27.73,15.67,5.12.52.52,2.02.07,3.37.07-1.91-3.84-4.08-6.65-6.76-9.07h0Z"/></g></svg>