<?xml version="1.0" encoding="UTF-8"?><svg id="Layer_2" xmlns="http://www.w3.org/2000/svg" viewBox="0 0 225.28 146.59"><defs><style>.cls-1{fill:#66683a;}</style></defs><g id="Layer_1-2"><path class="cls-1" d="m225.28,106.93c-.75.08-8.04-2.02-9.12-1.84,1.07.82,1.81,1.38,2.98,2.27-6.23,3.14-10.35-3.87-15.91-2.46.63,1.34,1.08,2.29,1.69,3.6-5.33.25-10.4-.16-14.59,3.64-1.27-2.53-2.67-3.78-5.38-2.92-3.42,1.08-6.54.07-9.56-1.91-4.11-2.7-8.22-5.69-12.76-7.35-5.02-1.82-6.59-5.25-7.19-9.83-.22-1.7-.43-3.4-.64-5.09-2.49.02-3.75.35-4.1,2.84-.76,5.35-3.5,6.46-8.65,3.81.08-.53,0-1.21.28-1.64,2.33-3.53,1.22-7.3.82-10.99-.27-2.45-2.3-3.33-4.25-3.28-1.99.05-2.95,1.54-2.77,3.77.2,2.34.15,4.73-.05,7.08-.3,3.38,1.23,6.38,1.66,9.53.44,3.17-.78,6.57-1.31,10.06,3.35,1.7,6.73,2.61,8.98,4.72,4.98,4.67,10.55,8.52,15.82,12.77,1.52,1.23,2.71,2.98,4.37,3.92,1.76.99,4.3,1.6,3.48,3.94-.52,1.48-2.81,2.46-4.46,3.36-.99.54-2.32.42-3.47.72-2.07.53-4.22.94-6.16,1.78-5.27,2.3-8.47.65-9.76-5.23l.23-.39-.2.43c-4.97-1.67-9.57-3.72-10.7-9.7-.07-.39-1.47-.52-2.73-.93,1.01,3.02,1.09,6.24,2.7,7.47,3.23,2.47,4.56,6.22,7.58,8.53-.51,1.06-.8,1.81-1.2,2.49-1.45,2.44-3.9,2.76-6.25,2.28-2.58-.53-3.11-2.61-2.83-5.11.15-1.32-.02-2.88-.61-4.05-1.1-2.17-2.77-4.04-3.91-6.19-1.78-3.36-2.51-6.88-.58-10.79,1.88,1.12,3.46,2.05,5.45,3.24-2.51-8.42-6.25-9.83-15.26-6.14.9,2.1,1.27,5.26,2.83,6.05,1.99,1,1.96,2.28,2.14,3.64.34,2.48.35,5,.51,7.6,4.9,2.51,3.37,8.3,6.03,11.9-.97,2.7-2.6,4.48-5.36,3.99-2.81-.5-5.25-1.74-5.61-5.23-.16-1.54-.75-3.11-1.48-4.49-2.42-4.57-2.34-9.36-1.63-13.71-1.18-1.33-2.86-2.34-2.97-3.49-.63-6.42-5.9-8.7-10.36-10.94-3.35-1.68-6.73-3.11-9.72-5.47-2.47-1.94-5.24-3.5-7.85-5.26-.3-.2-.46-.6-.81-1.08.69-.82,1.42-1.68,1.87-2.23-.41-2.86-.63-5.42-1.18-7.9-.53-2.39-.27-5.19-3.04-7.03-2.06,1.01-4.15,2.04-6.6,3.25.36,3.27.69,6.32.97,8.82,1.51.94,2.53,1.59,3.94,2.47-1.11.85-1.71,1.71-2.3,1.71-6.74-.08-11.47,3.87-16.11,7.96-1.75,1.54-3.27,3.34-4.89,5.02-1.78,1.85-3.42,3.85-5.36,5.51-1.51,1.29-3.39,2.11-5.6.35,2.94-6.19,9.82-9.72,11.46-16.67-1.65-2.09-3.51-1.74-5.45-.99-1.49,5.74-4.67,10.61-8.9,14.33-3.53,3.1-7.72,6.5-13.28,4l.07.08c.19-1.79,1.25-2.71,2.91-3.31,6.92-2.51,11.05-7.23,11.74-14.69-2.84-1.66-3.92.05-4.78,1.93-2.68,5.89-6.99,10.32-12.29,13.84-.8.53-1.98.51-3.34.83.44-1.9.74-3.21,1.04-4.52,7.61-2.44,9.66-9.09,11.83-15.64,1.19-.62,2.57-1.03,3.48-1.93.51-.51.22-1.82.34-3.35-1.41.61-2.08.95-2.78,1.18-.74.25-1.51.39-2.26.58-.63-1.13-1.27-2.26-2.04-3.65-2.17,1.02-4.2,1.97-6.67,3.13,1.69,1.51,2.96,2.65,4.39,3.93,1.65-1.31,3.02-2.4,4.38-3.49.42,1.22.83,2.44,1.25,3.66-2.39.6-4.49,2.98-7.26,1.15-3.81-1.09-6.33-.66-6.87,1.77-1.49,6.68-6.7,10.44-11.21,15.16.88.73,1.74,1.45,2.6,2.17-3.85,3.68-9.11,3.56-12.69-.59,1.81-1.22,3.61-2.37,5.33-3.62,1.75-1.27,4.26-2.3,4.95-4.03,1.46-3.65,3.86-6.33,6.43-9.09,1.12-1.2,1.55-3.15,2-4.83.93-3.43,1.15-7.15,2.63-10.29,1.2-2.54,1.75-4.95,1.16-7.41-1.26-5.24.62-9.3,4.1-12.9,1.47-1.52,1.94-3.18,2.08-5.32.42-6.48,2.38-8.38,8.54-8.99,1.16-.12,2.35-.02,2.79-.02,2.16-2.2,3.79-3.84,5.47-5.55-1.54-1.5-3.93-.17-5.15-2.58-.8-1.59-3.17-1.21-4.47.63-.41.58-.79,1.2-1.53,2.33-2.08-3.69-3.92-7.13-8.44-5.85-1.08,1.86,2.29,3.93-1.04,5.59-2.85-3.02-7.2-4.65-9.45-9.01,3.73-.8,7.1-2.41,10.16-1.95,3.16.48,6.13.89,9.31.44,1.91-.27,4.1.55,5.79-.09,1.33-.5,2.11-2.48,3.11-3.77-.71-.73-1.41-1.45-2.3-2.35,2.93-1.2,6.25,1.13,7.96-2.34-2.35-2.99-7.77-3.27-7.19-8.47,5.16-2.75,10-2.4,14.22,1.28,1.42,1.23,2.41.85,3.71.57.25.3.52.59.8.86,2.01,2.82,3.86,5.67,6.89,7.69,1.45.97,5.03.34,3.93,3.96,2.09.98,2.9,2.44,1.99,4.74-.15.39.25,1.31.65,1.55,4.53,2.68,2.54,7.3,3.2,11.07.24,1.37-.28,3.5-2.33,3.55-1.41.03-3.34-.35-4.15-1.3-2.28-2.68-3.53-6.06-2.19-9.48.83-2.12.41-3.43-1.01-4.7-1.63-1.46-3.31-1.01-4.79.31-1.01.9-1.92,1.91-2.85,2.9-3.17,3.41-6.33,6.83-9.5,10.24,0,0-.19-.34-.19-.34l.27.27c.1,3.96,3.27,6.33,4.93,9.47,1.36,2.59,2.53,5.36,6.32,5.15.68-.04,1.45,1.18,2.14,1.86,3.79,3.68,7.51,7.43,11.38,11.02.93.86,2.34,1.22,3.39,1.74,2.39-2.91,4.6-5.43,6.61-8.09,2.28-3.03,3.96-6.25,2.74-10.33-.5-1.67-.38-3.52-.61-5.28-.74-5.56,1.4-10.52,5.11-13.95,2.52-2.33,2.26-4.93,3.64-7.54-4.86,1.74-8.36-1.17-12.7-2.84.33-2.72.67-5.56,1.02-8.45-9.96-4.3-12.44-6.91-16.23-17.3.75-.2,1.67-.77,2.19-.52,3.33,1.64,7.75,1.21,9.77,5.48.55,1.17,2.45,1.7,3.74,2.52.43,1.03.87,2.05,1.3,3.08.34-.26.68-.52,1.01-.78l-2.38-2.24c1.45-1.62,3.05-3.12,4.31-4.87,2.48-3.47,5.74-5.29,9.94-5.49,2.75,4.71,2.4,6.66-1.72,9.69-2.57,1.89-4.11,4.36-4.95,7.93,4.43-.47,8.29-.92,12.16-1.26,1.85-.16,3.02.71,3.22,2.66.2,1.89-.6,3.08-2.49,3.37-1.36.21-2.75.31-4.13.32-4.04.04-8.08.01-12.12.01-.07,4.51,1.2,6.44,4.67,6.6,3.73.17,7.48.06,11.22.08,2.33.02,4.92.72,6.93-.07,3.22-1.26,5.6-1.18,7.98,1.41.53.58,1.83.45,2.77.65.16.16.32.32.48.48.45,1.82,1.67,1.99,3.14,1.37,1.24-.52,2.43-1.17,3.64-1.77.28.28.58.55.87.81-1.18,2.33-2.35,4.66-3.52,6.96,3.04,1,5.75,1.9,9.04,2.98.71-2.38,1.4-4.77,2.14-7.15,1.23-3.98,2.3-7.77,7.71-8.27,3.41-.32,7.02-1.47,9.93-3.25,3.46-2.12,6.55-1.62,9.95-1.02.1,2.64-1.61,3.25-3.18,4.17-1.11.65-2.48,1.64-2.78,2.73-1.89,6.82-7.29,8.85-13.25,10.36-2.2.56-4.3,1.51-7.32,2.59,3.77,3.36,6.75,6.01,10.05,8.95-2.89,1.32-4.96,1.37-7.23-.1-3.15-2.04-6.44-3.86-9.76-5.62-1.14-.61-2.5-.88-3.79-1.09-5.62-.93-9.06,2.65-12.52,5.86-.02,4.49.56,8.43,4.19,11.25,3.24,2.52,6.09,5.92,9.73,7.44,2.81,1.18.42,3.25,2.09,4.24,3.19-1.68,6.35-3.81,9.82-5.05,3.91-1.4,6.85-3.86,9.72-6.61,1.12-1.07,2.27-2.14,3.51-3.07,3.41-2.54,5.89-5.41,6.67-9.95.95-5.56,3.54-7.1,9.17-6.96,3.34.08,6.67.01,10.36.01,1.29.99,2.94,2.1,4.41,3.42,2.44,2.21,5.54,4.11,4.6,8.28-.1.44.34,1.35.72,1.48,2.69.94,2.92,3.3,3.87,5.5.85,1.96,2.53,3.52,1.88,5.94,4.1,1.4,2.36,4.38,1.29,7.11,3.2-.3,3.34,1.36,3.53,3.36.48,5.09,1.62,9.87,5.95,13.41,1.39,1.14,1.94,3.3,2.93,5.1,1.89-.12,3.41-.12,4.81,2.09m-102.85,2.89c.16-.33.33-.65.49-.98-.47.06-.93.11-1.4.17-.49,1.15-.11,1.34.91.81Zm54.59-21.83c-5.79.1-5.57,4.98-6.9,8.73,4.98-.89,5.46-5.2,6.86-8.79,1.32-.21,2.64-.42,3.96-.63-.1-.35-.2-.7-.3-1.05-1.2.58-2.41,1.16-3.61,1.74Zm29.87,10.76c-.23-1.23-.46-2.46-.7-3.77-.73.11-1.37.07-1.86.32-.46.23-.76.77-1.1,1.15.83,1.66,1.72,2.92,3.73,2.22,1.24,4.87,5.07,7.71,8.59,10.73,1.4,1.2,3.24,1.88,4.89,2.8.25-.31.51-.62.76-.93-3.69-3.93-7.38-7.86-11.49-12.24-.46-.05-1.64-.16-2.81-.28Zm-53.78,31.08c.45-.84.9-1.69,1.57-2.95-3.03-1.61-3.88-5.98-8.41-5.86.68,2.08,1.12,3.86,1.85,5.52.93,2.14,2.55,3.45,5.06,3.24.8,2.48,1.61,4.96,2.55,7.85,4.37.21,7.64,7.04,13.69,3.94-.46-5.27-4.61-3.02-7.08-4.15-1.13-2-2.28-4.02-3.35-5.9-2.09-.6-3.98-1.15-5.87-1.69Zm22.79-31.21c.18,1.43.47,3.66.77,6.03,2.74-1.06,2.33-3.05,2.61-4.73.34-2.09,1.76-3,3.67-3.33,1.95-.34,2.74.92,3.62,2.39,2.09,3.5,4.19,7.03,6.65,10.27,1.13,1.49,2.18,4.01,5.46,2.86-1.66-4.52-4.1-8.37-7.01-11.43-.22-4.68,5.83-4.35,6.07-8.37-5.65-2.03-11.22-.76-16.1-1.3-1.82,2.41-3.39,4.5-5.75,7.62Zm-128.57-4.53c1.09,4.62,3.74-.21,5.53,1.14-.09-.06.16.01.22.16.39,1.08.73,2.19,1.11,3.28.95,2.7,3.28,4.96,5.49,4.54,4.58-.87,9.22-1.83,13.07-5.22-3.12-4.68-6.49-.61-9.9-.65-4.32-4.03-9.11-7.17-15.52-3.26Zm83.48,15.32q5.77,1.34,7.46-4.15c.17-.56.39-1.14.75-1.59,3.44-4.28,2.02-7.93-1.28-11.36-4.63,1.06-5.06,1.21-3.93,4.46,1.33,3.79-.53,5.4-3.4,6.54.15,2.26.28,4.18.4,6.1Zm80.42,4.62c-1.92-3.69-2.89-6.67-4.78-8.89-1.88-2.21-4.65-3.66-7.26-5.61-1.17,3.16-.15,5.71,1.92,6.56,2.77,1.14,4.26,3.02,5.85,5.24.72,1.01,2.23,1.46,4.28,2.71Zm-98.91-11.27c5.45-2.17,7.37-3.71,7.01-5.88-.45-2.71-2.23-3.9-5.13-3.58-1.92,2.8-3.76,5.5-1.88,9.46Zm-37.56,1.27q4.26-1.18,4.75-4.1c-1.93.26-3.72.51-5.77.79.44,1.42.67,2.15,1.03,3.32Zm43.92-.87c-3.29,1.94-1.21,3.87-.33,6.51,2.35-2.48.75-4.49.33-6.51Zm2.57-33.71c.62-1.27,1.25-2,1.24-2.73,0-.46-1.14-1.39-1.45-1.27-.74.29-1.78,1.06-1.78,1.64,0,.64,1.02,1.28,1.99,2.36Zm.08,36.66c.47,0,.93,0,1.4-.01-.12-.94-.24-1.88-.36-2.81-.34.09-.97.16-.99.29-.09.84-.05,1.69-.05,2.54Zm64.91,6.57c.21-.21.42-.41.63-.62-.53-.73-.98-1.56-1.66-2.12-.15-.13-1.07.65-2.09,1.31,1.42.65,2.27,1.04,3.12,1.42Zm-62.19-63.58c-2.19-.72-3.11-1.24-4.01-1.21-.32,0-.6,1.33-1.19,2.76,1.86-.55,2.86-.85,5.21-1.54Zm81.81,66.03c-.19.28-.37.56-.56.84.33.14.67.42.97.38.2-.02.35-.49.52-.76-.31-.15-.62-.31-.93-.46Zm18.53-1.63c-.01-.15-.02-.31-.03-.46-.21.1-.43.2-.64.31.09.12.16.31.27.33.11.02.26-.11.4-.18Z"/></g></svg>